<mxfile host="app.diagrams.net" modified="2024-06-19T09:55:56.197Z" agent="Mozilla/5.0 (Windows NT 10.0; Win64; x64; rv:127.0) Gecko/20100101 Firefox/127.0" version="24.2.7" etag="7SkP-J4NXSDtBzDiRAO6" type="github">
  <diagram name="Page-1" id="yLLLdWYTX2LRjpezxKKx">
    <mxGraphModel>
      <root>
        <mxCell id="0" />
        <mxCell id="1" parent="0" />
      </root>
    </mxGraphModel>
  </diagram>
</mxfile>
